<svg version="1.1" xmlns="http://www.w3.org/2000/svg" viewBox="0 0 1275.0001 431.0001" width="1275.0001" height="431.0001">
  <!-- svg-source:excalidraw -->
  
  <defs>
    <style class="style-fonts">
      @font-face {
        font-family: "Virgil";
        src: url("https://excalidraw.com/Virgil.woff2");
      }
      @font-face {
        font-family: "Cascadia";
        src: url("https://excalidraw.com/Cascadia.woff2");
      }
    </style>
  </defs>
  <rect x="0" y="0" width="1275.0001" height="431.0001" fill="#ffffff"></rect><g stroke-linecap="round" transform="translate(30 104) rotate(0 64 38.5)"><path d="M1.73 -0.96 C36.19 1.43, 71.94 0.76, 126.54 0.77 M0.73 -0.73 C46.2 1.92, 94.33 0.72, 128.99 -0.62 M128.03 -0.14 C129.33 13.84, 126.46 33.1, 126.52 75.28 M128.97 0.19 C128.87 16.54, 128.48 34.23, 128.94 77.79 M128.83 76.51 C87.89 76.01, 44.85 74.8, 0.31 77.87 M128.14 76.97 C88.57 77.67, 47.5 77.14, 0.63 77.99 M-1.9 77.97 C-1.11 54.51, -0.09 29.9, 1.86 -1.04 M-0.51 76.75 C-1 51.41, -1.52 26.21, -0.27 -0.5" stroke="#000000" stroke-width="1" fill="none"></path></g><g stroke-linecap="round"><g transform="translate(359 139) rotate(0 35.04235379373188 -1.7192110122023792)"><path d="M0.89 -0.26 C6.14 -0.04, 20.47 1.55, 32.02 1.01 C43.57 0.47, 63.83 -2.54, 70.18 -3.48 M-0.1 -1.44 C4.95 -1.08, 19.48 2.71, 31.08 2.03 C42.68 1.34, 62.95 -4.57, 69.52 -5.55" stroke="#000000" stroke-width="1" fill="none"></path></g></g><mask></mask><g stroke-linecap="round" transform="translate(433 117) rotate(0 21 21)"><path d="M11.48 1.87 C15.19 -0.04, 22.44 0.38, 27.01 1.53 C31.57 2.68, 36.31 5.25, 38.84 8.75 C41.38 12.25, 42.81 18.08, 42.22 22.53 C41.64 26.98, 38.58 32.35, 35.34 35.44 C32.11 38.52, 27.22 40.41, 22.79 41.04 C18.36 41.68, 12.42 41.74, 8.78 39.25 C5.14 36.75, 2.1 30.39, 0.93 26.08 C-0.25 21.76, -0.51 17.46, 1.72 13.34 C3.95 9.21, 11.57 3.55, 14.3 1.33 C17.02 -0.89, 17.89 -0.39, 18.08 0 M14.66 0.38 C18.76 -1.21, 24.74 0.55, 28.76 2.38 C32.78 4.2, 36.44 7.15, 38.78 11.33 C41.13 15.5, 43.63 22.9, 42.84 27.43 C42.06 31.95, 37.94 36.08, 34.07 38.5 C30.2 40.92, 24.04 42.33, 19.62 41.96 C15.2 41.58, 10.58 39.48, 7.55 36.27 C4.53 33.06, 2.01 26.93, 1.48 22.68 C0.95 18.44, 2.15 14.32, 4.37 10.81 C6.58 7.3, 13.16 3.47, 14.77 1.64 C16.37 -0.19, 13.74 -0.47, 14.01 -0.17" stroke="#000000" stroke-width="1" fill="none"></path></g><g stroke-linecap="round" transform="translate(552 116) rotate(0 21 21)"><path d="M11.91 2.12 C15.44 -0.03, 21.67 -0.29, 26 0.88 C30.32 2.05, 35.1 5.39, 37.87 9.14 C40.63 12.9, 42.8 18.75, 42.58 23.39 C42.35 28.04, 39.83 33.93, 36.51 37 C33.18 40.08, 27.12 41.73, 22.61 41.85 C18.11 41.96, 13.1 40.32, 9.48 37.69 C5.86 35.06, 2.26 30.36, 0.9 26.07 C-0.47 21.78, -1.1 16.18, 1.28 11.96 C3.67 7.74, 12.53 2.63, 15.2 0.75 C17.88 -1.13, 17.32 0.26, 17.36 0.69 M21.06 0.06 C25.7 -0.44, 31.27 0.57, 34.83 3.42 C38.38 6.26, 41.62 12.77, 42.38 17.14 C43.13 21.5, 41.41 25.85, 39.36 29.6 C37.32 33.34, 33.99 37.51, 30.11 39.63 C26.22 41.75, 20.52 43.62, 16.07 42.32 C11.62 41.01, 5.97 36, 3.39 31.79 C0.81 27.59, -0.16 21.4, 0.61 17.07 C1.37 12.74, 4.64 8.84, 7.96 5.81 C11.29 2.79, 18.57 -0.05, 20.55 -1.08 C22.54 -2.11, 20.18 -0.99, 19.87 -0.37" stroke="#000000" stroke-width="1" fill="none"></path></g><g stroke-linecap="round" transform="translate(673 114) rotate(0 21 21)"><path d="M30.28 2.61 C34.16 4.36, 38.15 9.01, 40.04 13.22 C41.93 17.44, 42.81 23.47, 41.61 27.91 C40.42 32.35, 36.8 37.55, 32.87 39.85 C28.93 42.14, 22.46 42.56, 17.99 41.69 C13.52 40.81, 9 37.97, 6.04 34.6 C3.09 31.24, 0.64 25.92, 0.25 21.49 C-0.13 17.07, 0.99 11.57, 3.73 8.05 C6.48 4.53, 11.9 1.01, 16.72 0.38 C21.54 -0.26, 29.54 3.15, 32.63 4.26 C35.72 5.37, 35.31 6.87, 35.24 7.01 M16.85 -0.09 C20.86 -1.3, 27.05 1, 30.86 2.89 C34.66 4.79, 37.81 7.46, 39.69 11.28 C41.57 15.1, 43.06 21.11, 42.13 25.81 C41.21 30.51, 38 36.89, 34.16 39.46 C30.32 42.03, 23.69 42.08, 19.09 41.24 C14.49 40.39, 9.51 37.45, 6.56 34.4 C3.61 31.34, 1.73 27.35, 1.39 22.91 C1.05 18.48, 2.16 11.63, 4.53 7.79 C6.9 3.95, 13.96 0.91, 15.61 -0.12 C17.25 -1.16, 14.11 0.93, 14.4 1.57" stroke="#000000" stroke-width="1" fill="none"></path></g><g transform="translate(1064 286) rotate(0 0.00004999999998744897 0.00004999999998744897)" stroke="none"><path fill="#a61e4d" d="M 1.57,-1.57 Q 1.57,-1.57 1.77,-1.27 1.98,-0.98 2.09,-0.64 2.20,-0.29 2.19,0.05 2.18,0.41 2.05,0.75 1.93,1.09 1.70,1.37 1.48,1.65 1.18,1.84 0.87,2.04 0.52,2.12 0.18,2.21 -0.17,2.18 -0.53,2.15 -0.86,2.01 -1.19,1.87 -1.46,1.63 -1.73,1.39 -1.90,1.07 -2.08,0.76 -2.15,0.41 -2.21,0.05 -2.17,-0.29 -2.12,-0.65 -1.96,-0.97 -1.80,-1.29 -1.54,-1.54 -1.29,-1.80 -0.97,-1.96 -0.65,-2.12 -0.29,-2.17 0.06,-2.21 0.41,-2.15 0.76,-2.08 1.07,-1.90 1.39,-1.73 1.63,-1.46 1.87,-1.19 2.01,-0.86 2.15,-0.53 2.18,-0.17 2.21,0.18 2.12,0.52 2.03,0.87 1.84,1.18 1.65,1.48 1.37,1.70 1.09,1.93 0.75,2.05 0.41,2.18 0.05,2.19 -0.30,2.20 -0.64,2.09 -0.98,1.98 -1.27,1.77 -1.57,1.56 -1.57,1.57 -1.57,1.57 -1.73,1.35 -1.90,1.14 -2.01,0.90 -2.12,0.66 -2.16,0.39 -2.21,0.13 -2.20,-0.13 -2.18,-0.40 -2.10,-0.65 -2.02,-0.91 -1.88,-1.14 -1.74,-1.36 -1.55,-1.55 -1.36,-1.74 -1.14,-1.88 -0.91,-2.02 -0.65,-2.10 -0.40,-2.18 -0.13,-2.20 0.13,-2.21 0.39,-2.16 0.66,-2.12 0.90,-2.01 1.14,-1.90 1.35,-1.73 1.57,-1.57 1.57,-1.57 L 1.57,-1.57 Z"></path></g><g transform="translate(1265 336) rotate(0 0.00004999999998744897 0.00004999999998744897)" stroke="none"><path fill="#a61e4d" d="M 1.57,-1.57 Q 1.57,-1.57 1.77,-1.27 1.98,-0.98 2.09,-0.64 2.20,-0.29 2.19,0.05 2.18,0.41 2.05,0.75 1.93,1.09 1.70,1.37 1.48,1.65 1.18,1.84 0.87,2.04 0.52,2.12 0.18,2.21 -0.17,2.18 -0.53,2.15 -0.86,2.01 -1.19,1.87 -1.46,1.63 -1.73,1.39 -1.90,1.07 -2.08,0.76 -2.15,0.41 -2.21,0.05 -2.17,-0.29 -2.12,-0.65 -1.96,-0.97 -1.80,-1.29 -1.54,-1.54 -1.29,-1.80 -0.97,-1.96 -0.65,-2.12 -0.29,-2.17 0.06,-2.21 0.41,-2.15 0.76,-2.08 1.07,-1.90 1.39,-1.73 1.63,-1.46 1.87,-1.19 2.01,-0.86 2.15,-0.53 2.18,-0.17 2.21,0.18 2.12,0.52 2.03,0.87 1.84,1.18 1.65,1.48 1.37,1.70 1.09,1.93 0.75,2.05 0.41,2.18 0.05,2.19 -0.30,2.20 -0.64,2.09 -0.98,1.98 -1.27,1.77 -1.57,1.56 -1.57,1.57 -1.57,1.57 -1.73,1.35 -1.90,1.14 -2.01,0.90 -2.12,0.66 -2.16,0.39 -2.21,0.13 -2.20,-0.13 -2.18,-0.40 -2.10,-0.65 -2.02,-0.91 -1.88,-1.14 -1.74,-1.36 -1.55,-1.55 -1.36,-1.74 -1.14,-1.88 -0.91,-2.02 -0.65,-2.10 -0.40,-2.18 -0.13,-2.20 0.13,-2.21 0.39,-2.16 0.66,-2.12 0.90,-2.01 1.14,-1.90 1.35,-1.73 1.57,-1.57 1.57,-1.57 L 1.57,-1.57 Z"></path></g><g transform="translate(1053 421) rotate(0 0.00004999999998744897 0.00004999999998744897)" stroke="none"><path fill="#a61e4d" d="M 1.57,-1.57 Q 1.57,-1.57 1.77,-1.27 1.98,-0.98 2.09,-0.64 2.20,-0.29 2.19,0.05 2.18,0.41 2.05,0.75 1.93,1.09 1.70,1.37 1.48,1.65 1.18,1.84 0.87,2.04 0.52,2.12 0.18,2.21 -0.17,2.18 -0.53,2.15 -0.86,2.01 -1.19,1.87 -1.46,1.63 -1.73,1.39 -1.90,1.07 -2.08,0.76 -2.15,0.41 -2.21,0.05 -2.17,-0.29 -2.12,-0.65 -1.96,-0.97 -1.80,-1.29 -1.54,-1.54 -1.29,-1.80 -0.97,-1.96 -0.65,-2.12 -0.29,-2.17 0.06,-2.21 0.41,-2.15 0.76,-2.08 1.07,-1.90 1.39,-1.73 1.63,-1.46 1.87,-1.19 2.01,-0.86 2.15,-0.53 2.18,-0.17 2.21,0.18 2.12,0.52 2.03,0.87 1.84,1.18 1.65,1.48 1.37,1.70 1.09,1.93 0.75,2.05 0.41,2.18 0.05,2.19 -0.30,2.20 -0.64,2.09 -0.98,1.98 -1.27,1.77 -1.57,1.56 -1.57,1.57 -1.57,1.57 -1.73,1.35 -1.90,1.14 -2.01,0.90 -2.12,0.66 -2.16,0.39 -2.21,0.13 -2.20,-0.13 -2.18,-0.40 -2.10,-0.65 -2.02,-0.91 -1.88,-1.14 -1.74,-1.36 -1.55,-1.55 -1.36,-1.74 -1.14,-1.88 -0.91,-2.02 -0.65,-2.10 -0.40,-2.18 -0.13,-2.20 0.13,-2.21 0.39,-2.16 0.66,-2.12 0.90,-2.01 1.14,-1.90 1.35,-1.73 1.57,-1.57 1.57,-1.57 L 1.57,-1.57 Z"></path></g><g stroke-linecap="round" transform="translate(214.5 101.5) rotate(0 59 39.5)"><path d="M-1.96 0.95 C23.59 -0.65, 49.5 1.07, 117.12 -1.12 M0.68 -0.31 C34.12 0.69, 68.77 1.58, 117.16 -0.72 M119.28 -0.74 C118.64 28.68, 118.1 58.14, 116.96 77.2 M118.15 0.2 C117.65 23.14, 118.26 48.73, 117.27 79.15 M116.44 79.45 C81.08 76.88, 47.17 76.36, -0.19 79.51 M117.45 78.27 C79.19 77.7, 40.81 78.5, -0.4 79.48 M1.07 79.98 C0.55 49.84, 1.62 23.15, 1.2 -0.48 M-0.17 78.24 C-0.6 50.23, -0.82 21.56, -0.15 0.79" stroke="#000000" stroke-width="1" fill="none"></path></g><g stroke-linecap="round"><g transform="translate(168.06856378629737 143.8309221877658) rotate(0 20.331996848881943 -1.2394485708898912)"><path d="M-0.16 0.57 C3.04 0.3, 13.35 -0.36, 20.05 -0.64 C26.74 -0.92, 36.52 -0.96, 40 -1.11 M-1.7 -0.17 C1.22 0.19, 11.52 0.8, 18.86 0.32 C26.21 -0.17, 38.66 -2.97, 42.37 -3.05" stroke="#000000" stroke-width="1" fill="none"></path></g></g><mask></mask><g stroke-linecap="round" transform="translate(10 35) rotate(0 170.5 103)"><path d="M32 0 M32 0 C100.13 1.51, 166.28 1.16, 309 0 M32 0 C122.68 -0.29, 214.94 -0.89, 309 0 M309 0 C330.43 1.4, 341.72 8.72, 341 32 M309 0 C329.7 2.12, 339.56 9.45, 341 32 M341 32 C343.83 76.11, 342.77 120.79, 341 174 M341 32 C341.68 83.23, 342.19 134.65, 341 174 M341 174 C339.81 193.94, 328.75 206.2, 309 206 M341 174 C342.53 196.29, 329.57 206.63, 309 206 M309 206 C216.97 204.8, 125.46 205.6, 32 206 M309 206 C220.32 204.4, 129.52 205.09, 32 206 M32 206 C10.43 207.66, 0.55 195.33, 0 174 M32 206 C11.84 206.54, -0.01 193.42, 0 174 M0 174 C-0.51 133.86, 0.56 94.44, 0 32 M0 174 C-0.5 135.86, -0.89 97.5, 0 32 M0 32 C1.3 12.1, 10.09 1.8, 32 0 M0 32 C1.58 9.59, 11.47 -1.18, 32 0" stroke="#a61e4d" stroke-width="1" fill="none"></path></g><g transform="translate(111 10) rotate(0 122 13)"><text x="0" y="18" font-family="Virgil, Segoe UI Emoji" font-size="20px" fill="#a61e4d" text-anchor="start" style="white-space: pre;" direction="ltr">nrgcore &lt;Imputiry, Bath&gt;</text></g><g transform="translate(45 107) rotate(0 39 25.5)"><text x="0" y="18.5" font-family="Virgil, Segoe UI Emoji" font-size="20px" fill="#a61e4d" text-anchor="start" style="white-space: pre;" direction="ltr">Impurity</text><text x="0" y="44" font-family="Virgil, Segoe UI Emoji" font-size="20px" fill="#a61e4d" text-anchor="start" style="white-space: pre;" direction="ltr">Class</text></g><g transform="translate(242 109) rotate(0 27 25.5)"><text x="0" y="18.5" font-family="Virgil, Segoe UI Emoji" font-size="20px" fill="#a61e4d" text-anchor="start" style="white-space: pre;" direction="ltr">Bath</text><text x="0" y="44" font-family="Virgil, Segoe UI Emoji" font-size="20px" fill="#a61e4d" text-anchor="start" style="white-space: pre;" direction="ltr">Class</text></g><g stroke-linecap="round"><g transform="translate(476.9576462062681 138.71921101220232) rotate(0 34.613080527614784 -0.9739787350349332)"><path d="M0.56 0.66 C6.13 0.84, 21.38 1.8, 32.93 1.02 C44.47 0.23, 63.47 -3.01, 69.83 -4.04 M-0.6 -0.04 C4.94 0.26, 20.87 2.49, 32.47 2.04 C44.06 1.58, 63.01 -1.63, 68.97 -2.75" stroke="#000000" stroke-width="1" fill="none"></path></g></g><mask></mask><g stroke-linecap="round"><g transform="translate(598.9576462062681 135.71921101220232) rotate(0 35.444593651024604 -1.1587514466567654)"><path d="M-0.26 1.09 C5.04 1.36, 20.66 2.11, 32.18 1.39 C43.7 0.68, 62.59 -2.35, 68.86 -3.22 M1.8 0.61 C6.93 1.05, 19.77 3.57, 31.33 2.61 C42.88 1.65, 64.73 -4.29, 71.15 -5.15" stroke="#000000" stroke-width="1" fill="none"></path></g></g><mask></mask><g stroke-linecap="round"><g transform="translate(714.9576462062681 136.71921101220232) rotate(0 34.88833123090677 -1.100030615183158)"><path d="M0.91 0.61 C6.21 1.1, 19.33 3.1, 30.82 2.23 C42.32 1.35, 63.33 -3.61, 69.85 -4.64 M-0.08 -0.12 C5.66 0.04, 21.4 0.81, 32.92 0.22 C44.43 -0.37, 62.79 -3.15, 69.01 -3.66" stroke="#000000" stroke-width="1" fill="none"></path></g></g><mask></mask><g stroke-linecap="round" transform="translate(787.75 112.5) rotate(0 21 21)"><path d="M17.12 1.22 C21.12 0.26, 27.38 0.8, 31.22 2.9 C35.06 4.99, 38.51 9.45, 40.17 13.78 C41.83 18.11, 42.69 24.83, 41.18 28.88 C39.68 32.94, 34.97 36.04, 31.12 38.1 C27.27 40.15, 22.26 41.69, 18.08 41.23 C13.9 40.78, 9.17 38.68, 6.05 35.37 C2.93 32.05, -0.39 26.05, -0.63 21.34 C-0.87 16.64, 0.63 10.59, 4.6 7.13 C8.57 3.66, 18.95 1.42, 23.18 0.53 C27.42 -0.36, 30.07 1.36, 29.99 1.79 M11.64 2.92 C15.44 1.11, 21.02 0.47, 25.55 1.6 C30.08 2.72, 36.07 6.29, 38.82 9.68 C41.58 13.08, 42.76 17.31, 42.06 21.97 C41.36 26.64, 37.67 34.37, 34.61 37.7 C31.55 41.02, 28.16 41.66, 23.7 41.94 C19.24 42.21, 11.9 42.21, 7.85 39.36 C3.79 36.51, 0.13 29.66, -0.65 24.85 C-1.43 20.04, 0.8 14.42, 3.15 10.51 C5.49 6.6, 12 3.05, 13.42 1.41 C14.84 -0.24, 11.71 0.29, 11.65 0.63" stroke="#000000" stroke-width="1" fill="none"></path></g><g transform="translate(361 152) rotate(0 24.5 38.5)"><text x="0" y="17.666666666666668" font-family="Virgil, Segoe UI Emoji" font-size="20px" fill="#a61e4d" text-anchor="start" style="white-space: pre;" direction="ltr">Add</text><text x="0" y="43.333333333333336" font-family="Virgil, Segoe UI Emoji" font-size="20px" fill="#a61e4d" text-anchor="start" style="white-space: pre;" direction="ltr">Bath</text><text x="0" y="69" font-family="Virgil, Segoe UI Emoji" font-size="20px" fill="#a61e4d" text-anchor="start" style="white-space: pre;" direction="ltr">Site</text></g><g transform="translate(484.5 158.5) rotate(0 24.5 38.5)"><text x="0" y="17.666666666666668" font-family="Virgil, Segoe UI Emoji" font-size="20px" fill="#a61e4d" text-anchor="start" style="white-space: pre;" direction="ltr">Add</text><text x="0" y="43.333333333333336" font-family="Virgil, Segoe UI Emoji" font-size="20px" fill="#a61e4d" text-anchor="start" style="white-space: pre;" direction="ltr">Bath</text><text x="0" y="69" font-family="Virgil, Segoe UI Emoji" font-size="20px" fill="#a61e4d" text-anchor="start" style="white-space: pre;" direction="ltr">Site</text></g><g transform="translate(610.5 154.5) rotate(0 24.5 38.5)"><text x="0" y="17.666666666666668" font-family="Virgil, Segoe UI Emoji" font-size="20px" fill="#a61e4d" text-anchor="start" style="white-space: pre;" direction="ltr">Add</text><text x="0" y="43.333333333333336" font-family="Virgil, Segoe UI Emoji" font-size="20px" fill="#a61e4d" text-anchor="start" style="white-space: pre;" direction="ltr">Bath</text><text x="0" y="69" font-family="Virgil, Segoe UI Emoji" font-size="20px" fill="#a61e4d" text-anchor="start" style="white-space: pre;" direction="ltr">Site</text></g><g transform="translate(723.5 152.5) rotate(0 24.5 38.5)"><text x="0" y="17.666666666666668" font-family="Virgil, Segoe UI Emoji" font-size="20px" fill="#a61e4d" text-anchor="start" style="white-space: pre;" direction="ltr">Add</text><text x="0" y="43.333333333333336" font-family="Virgil, Segoe UI Emoji" font-size="20px" fill="#a61e4d" text-anchor="start" style="white-space: pre;" direction="ltr">Bath</text><text x="0" y="69" font-family="Virgil, Segoe UI Emoji" font-size="20px" fill="#a61e4d" text-anchor="start" style="white-space: pre;" direction="ltr">Site</text></g></svg>